<svg id="Layer_1" data-name="Layer 1" xmlns="http://www.w3.org/2000/svg" xmlns:xlink="http://www.w3.org/1999/xlink"
    viewBox="0 0 1068 662.98">
    <defs>
        <style>
            .cls-1 {
                fill: url(#linear-gradient);
            }
        </style>
        <linearGradient id="linear-gradient" x1="6" y1="540" x2="1074" y2="540" gradientUnits="userSpaceOnUse">
            <stop offset="0" stop-color="#473f9d" />
            <stop offset="1" stop-color="#9d2eaf" />
        </linearGradient>
    </defs>
    <path class="cls-1"
        d="M1066.38,538.82l-106.07-106a26,26,0,0,0-37,0L837.17,519,662.72,344.69l73-73L867,403.12a26.21,26.21,0,1,0,37.07-37.07l-150-149.84a26,26,0,0,0-37,0L607.22,326.15a26.18,26.18,0,0,0,0,37l192.88,193-57.17,57.17-74.34-74.34c-.11-.11-.21-.11-.21-.21L563.77,434.11c-6.49-6.39-13.3-7.64-23.77-7.64s-17.28,1.25-23.77,7.64L411.62,538.72c0,.1-.1.1-.21.21l-74.34,74.34L279.9,556.1l192.88-193a26.18,26.18,0,0,0,0-37L362.83,216.21a26,26,0,0,0-37,0l-150,149.84A26.21,26.21,0,1,0,213,403.12L344.3,271.7l73,73L242.83,519l-86.18-86.18a26,26,0,0,0-37,0l-106.07,106a26.35,26.35,0,0,0,0,37.07L118.33,680.6a26.35,26.35,0,0,0,37.07,0l87.43-87.54,57.28,57.28-87.54,87.43a26.35,26.35,0,0,0,0,37.07l89,89a26.28,26.28,0,0,0,37.07,0l106-106.07a26,26,0,0,0,0-37l-70.47-70.47L431,593.48l90.26,81.68.21.2a6,6,0,0,0,.94.84,13.89,13.89,0,0,0,2,1.57,10.35,10.35,0,0,0,1.78,1.36,26.48,26.48,0,0,0,27.64,0,10.35,10.35,0,0,0,1.78-1.36,13.89,13.89,0,0,0,2-1.57l1.15-1L649,593.48l56.86,56.86-70.47,70.47a26,26,0,0,0,0,37l106,106.07a26.28,26.28,0,0,0,37.07,0l89-89a26.35,26.35,0,0,0,0-37.07l-87.54-87.43,57.28-57.28L924.6,680.6a26.35,26.35,0,0,0,37.07,0l104.71-104.71A26.35,26.35,0,0,0,1066.38,538.82ZM136.86,625,69.22,557.36l68.9-69,67.75,67.75ZM389.11,739.34l-69,68.9-51.94-51.93,68.9-69ZM540.94,620.71l-.94-1-62.41-62.4,67.65-67.65,66.7,66.7Zm270.89,135.6-51.94,51.93-69-68.9,52-52ZM943.14,625l-69-68.9,67.75-67.75,68.9,69Z"
        transform="translate(-6 -208.51)" />
</svg>